# xmcd CD database file
#
# Track frame offsets:
#	150
#	21375
#	50512
#	58087
#	77512
#	82087
#	98662
#	114749
#	133911
#	148798
#	184835
#	204860
#
# Disc length: 2949 seconds
#
# Revision: 0
# Processed by: cddbd v1.5.2PL0 Copyright (c) Steve Scherf et al.
# Submitted via: CDex 1.70beta2
#
DISCID=aa0b830c
DTITLE=Mount George Blues Revolution - Jazz in der Mitte Live - Set 1
DYEAR=2008
DGENRE=Blues
TTITLE0=Every day I have the Blues
TTITLE1=Bring it on home
TTITLE2=Stage Announcements
TTITLE3=Kansas City
TTITLE4=Stage Announcements
TTITLE5=Good Golly Miss Molly
TTITLE6=Hound Dog
TTITLE7=I'm torn down
TTITLE8=Johnny B. Goode
TTITLE9=MGBR Blues
TTITLE10=Sweet Home Chicago
TTITLE11=Long Tall Sally
EXTD=YEAR: 2008
EXTT0=
EXTT1=
EXTT2=
EXTT3=
EXTT4=
EXTT5=
EXTT6=
EXTT7=
EXTT8=
EXTT9=
EXTT10=
EXTT11=
PLAYORDER=
